<?xml version="1.0" standalone="no"?>
<!DOCTYPE svg PUBLIC "-//W3C//DTD SVG 20010904//EN"
 "http://www.w3.org/TR/2001/REC-SVG-20010904/DTD/svg10.dtd">
<svg version="1.0" xmlns="http://www.w3.org/2000/svg"
 width="359.000000pt" height="359.000000pt" viewBox="0 0 359.000000 359.000000"
 preserveAspectRatio="xMidYMid meet">
<metadata>
Created by potrace 1.11, written by Peter Selinger 2001-2013
</metadata>
<g transform="translate(0.000000,359.000000) scale(0.100000,-0.100000)"
fill="#000000" stroke="none">
<path d="M1166 3558 c-27 -5 -68 -22 -92 -38 -50 -35 -49 -34 -134 -130 -51
-57 -64 -78 -61 -99 1 -14 7 -31 12 -37 5 -6 11 -28 14 -50 3 -21 10 -57 16
-80 9 -34 8 -46 -10 -80 -11 -21 -23 -57 -27 -79 -3 -22 -8 -43 -10 -46 -6
-11 24 -88 46 -120 12 -16 30 -34 41 -40 18 -9 19 -8 13 17 -6 24 -8 53 -5 97
2 35 20 16 30 -33 20 -91 15 -124 -21 -151 -17 -13 -43 -33 -56 -45 l-25 -21
-38 21 c-36 19 -41 20 -66 6 -27 -15 -74 -96 -132 -230 -79 -181 -132 -282
-171 -322 -124 -129 -216 -272 -266 -416 -28 -82 -32 -130 -14 -176 23 -62 75
-73 120 -25 28 31 28 31 40 9 9 -16 19 -21 43 -18 26 2 31 0 29 -15 -5 -28 19
-89 42 -109 40 -33 98 -18 154 40 20 21 53 75 52 87 0 3 0 8 0 11 0 3 12 -4
26 -15 37 -29 79 -27 109 5 l25 27 0 -24 c0 -33 56 -99 83 -99 18 0 30 -16 62
-82 33 -71 55 -99 147 -191 59 -59 114 -107 122 -107 8 0 16 -4 18 -8 2 -4 24
-20 51 -35 34 -20 47 -34 47 -50 0 -13 17 -59 39 -103 35 -73 65 -111 114
-146 27 -20 30 -84 3 -114 -18 -21 -37 -27 -131 -40 -117 -16 -182 -32 -240
-60 l-36 -17 3 -90 c2 -79 5 -94 26 -119 21 -25 51 -31 36 -7 -3 6 -8 25 -11
42 l-5 32 26 -24 c31 -29 38 -25 28 15 -11 41 -4 72 19 85 23 12 54 4 44 -11
-3 -5 -8 -27 -11 -48 -4 -36 -1 -42 56 -96 33 -31 64 -55 69 -52 5 4 -1 26
-15 49 l-23 43 20 42 c19 39 30 46 76 57 55 13 92 24 125 39 23 10 39 12 43 6
3 -6 15 -10 26 -10 24 0 24 -4 -1 -38 -19 -25 -19 -30 -5 -82 9 -33 23 -61 37
-72 46 -34 127 -80 137 -76 6 1 -3 24 -20 50 -33 50 -40 98 -19 124 13 14 15
14 22 -7 10 -27 16 -22 33 28 12 34 16 38 55 41 40 3 42 3 35 -20 -4 -13 -18
-43 -30 -68 -18 -36 -20 -52 -13 -79 17 -62 44 -97 111 -139 26 -16 44 -32 42
-36 -3 -3 0 -2 5 2 7 5 -1 29 -21 67 -41 75 -43 101 -12 154 42 72 85 111 125
114 20 2 52 12 72 22 29 16 40 17 73 7 21 -6 47 -14 58 -17 34 -9 85 -61 85
-86 0 -13 -8 -45 -17 -71 -9 -26 -14 -50 -11 -54 19 -18 142 102 133 129 -2 7
-7 30 -10 52 -3 23 -17 51 -32 68 -30 31 -136 87 -165 87 -25 0 -91 43 -109
71 -9 13 -16 41 -17 61 l-3 37 36 -6 c39 -6 45 5 15 27 -25 18 -26 33 -2 26
27 -8 97 -20 210 -34 127 -17 563 -1 672 24 14 4 43 8 64 10 56 6 121 51 162
112 29 44 33 56 23 68 -8 10 -21 13 -40 9 -27 -6 -28 -5 -21 22 11 37 7 69 -8
88 -16 19 -37 19 -73 0 -28 -14 -28 -14 -26 13 4 47 0 60 -20 67 -11 3 -28 1
-38 -4 -102 -57 -201 -59 -300 -9 -174 89 -295 167 -399 255 l-31 27 18 29
c19 33 18 80 -6 146 -12 36 -12 46 8 108 22 70 32 84 51 77 6 -2 24 7 41 20
28 23 29 26 19 64 -9 35 -8 41 9 52 17 10 19 19 14 61 -4 27 -15 63 -26 78
-20 27 -20 31 -5 82 30 100 21 203 -24 282 -41 73 -331 365 -452 456 -128 95
-168 106 -210 56 -24 -29 -90 -66 -118 -67 -50 -1 -92 25 -130 79 -20 28 -22
39 -16 120 8 125 8 139 0 228 -9 109 -25 185 -44 215 -31 50 -97 85 -210 111
-121 27 -121 27 -176 17z m714 -2818 c7 -16 32 -48 57 -71 l45 -41 28 27 c45
43 97 12 86 -51 -6 -30 -53 -84 -73 -84 -8 0 -40 -13 -73 -30 -68 -34 -95 -37
-130 -13 -14 10 -44 18 -70 18 -61 1 -102 28 -96 64 2 14 5 30 5 35 1 4 16 6
34 2 90 -17 88 -18 52 26 -32 38 -24 48 20 23 42 -22 48 -18 34 24 -10 29 -9
34 15 56 14 13 26 29 26 35 0 22 28 8 40 -20z"/>
</g>
</svg>
